<svg width="1440" height="320" viewBox="0 0 1440 320" fill="none" xmlns="http://www.w3.org/2000/svg">
<g clip-path="url(#clip0)">
<path d="M0 192L60 208C120 224 240 256 360 240C480 224 600 160 720 128C840 96 960 96 1080 117.3C1200 139 1320 181 1380 202.7L1440 224V0H1380C1320 0 1200 0 1080 0C960 0 840 0 720 0C600 0 480 0 360 0C240 0 120 0 60 0H0V192Z" fill="#0099FF"/>
<path d="M0 172L60 188C120 204 240 236 360 220C480 204 600 140 720 108C840 76 960 76 1080 97.3C1200 119 1320 161 1380 182.7L1440 204V-20H1380C1320 -20 1200 -20 1080 -20C960 -20 840 -20 720 -20C600 -20 480 -20 360 -20C240 -20 120 -20 60 -20H0V172Z" fill="#8BC34A"/>
</g>
<defs>
<clipPath id="clip0">
<rect width="1440" height="320" fill="white"/>
</clipPath>
</defs>
</svg>
